HIERARCHY
ROOT pelvis
{
  OFFSET 0 100 0
  CHANNELS 6 Xposition Yposition Zposition Zrotation Xrotation Yrotation
  JOINT pelvis_right_femur
  {
    OFFSET -10.78128 -3.44521 -0.5502486
    CHANNELS 3 Zrotation Xrotation Yrotation
    JOINT right_femur_tibia
    {
      OFFSET -0.8047443 -44.0398 -0.1307829
      CHANNELS 3 Zrotation Xrotation Yrotation
      JOINT right_tibia_foot
      {
        OFFSET 3.006224 -47.83518 -5
        CHANNELS 3 Zrotation Xrotation Yrotation
        End Site
        {
          OFFSET 0 -5 15
        }
      }
    }
  }
  JOINT pelvis_left_femur
  {
    OFFSET 10.78128 -3.44521 -0.5502486
    CHANNELS 3 Zrotation Xrotation Yrotation
    JOINT left_femur_tibia
    {
      OFFSET 0.8047443 -44.0398 -0.1307829
      CHANNELS 3 Zrotation Xrotation Yrotation
      JOINT left_tibia_foot
      {
        OFFSET -4.370144 -48.10324 -4.275266
        CHANNELS 3 Zrotation Xrotation Yrotation
        End Site
        {
          OFFSET 0 -5 15
        }
      }
    }
  }
  JOINT pelvis_spine1
  {
    OFFSET 0 6.468898 -3.129235
    CHANNELS 3 Zrotation Xrotation Yrotation
    JOINT spine1
    {
      OFFSET 0 23.15396 4.99043
      CHANNELS 3 Zrotation Xrotation Yrotation
      JOINT spine2
      {
        OFFSET 0 20.79997 -5.064912
        CHANNELS 3 Zrotation Xrotation Yrotation
        JOINT neck
        {
          OFFSET 0 14.38658 9.616178
          CHANNELS 3 Zrotation Xrotation Yrotation
          End Site
          {
            OFFSET 0 20 0
          }
        }
      }
      JOINT right_manubrium
      {
        OFFSET -5.722621 16.35077 3.967754
        CHANNELS 3 Zrotation Xrotation Yrotation
        JOINT right_clavicle
        {
          OFFSET -13.16364 1.694482 -4.693211
          CHANNELS 3 Zrotation Xrotation Yrotation
          JOINT right_humerus
          {
            OFFSET -28.5034 -0.3100689 -2.792744
            CHANNELS 3 Zrotation Xrotation Yrotation
            JOINT right_radius
            {
              OFFSET -25.15693 0.02248979 -1.271978
              CHANNELS 3 Zrotation Xrotation Yrotation
              End Site
              {
                OFFSET -15 0 0
              }
            }
          }
        }
      }
      JOINT left_manubrium
      {
        OFFSET 5.722621 16.35077 3.967754
        CHANNELS 3 Zrotation Xrotation Yrotation
        JOINT left_clavicle
        {
          OFFSET 13.16364 1.694482 -4.693211
          CHANNELS 3 Zrotation Xrotation Yrotation
          JOINT left_humerus
          {
            OFFSET 29.39168 -1.063119 -2.237045
            CHANNELS 3 Zrotation Xrotation Yrotation
            JOINT left_radius
            {
              OFFSET 24.59957 -0.9528479 0.9047498
              CHANNELS 3 Zrotation Xrotation Yrotation
              End Site
              {
                OFFSET 15 -0 -0
              }
            }
          }
        }
      }
    }
  }
}
MOTION
Frames: 13
Frame Time: 0.0416666666667
-187.7751 102.3027 2170.588 -0.6196958 -8.622142 -18.921 -0.5121609 -6.370897 -3.481559 -0 29.56298 -0 -11.40808 -9.466734 -0.1682232 -6.448214 12.49418 -21.11725 -0 4.855675 -0 0.5452956 -18.30586 22.00655 -1.83443 -1.801304 6.807564 -0.2858971 13.40987 -5.574471 1.773317 21.39407 4.754261 5.094996 -19.68485 5.588718 5.808739 -20.21264 10.74251 86.5061 35.34026 -18.24779 -0 0 16.10483 -13.94371 9.486048 3.490031 7.805348 -24.34923 -6.59095 -92.13954 14.9526 21.80187 0 0 -12.11204 18.99385 13.90629 -6.768278
-188.4323 101.7868 2173.237 -0.4648109 -7.877858 -18.71496 -0.2215233 -8.172927 -3.105474 -0 28.92543 -0 -11.03073 -9.620338 -0.2247414 -6.487993 12.63091 -20.94114 -0 4.783795 -0 1.208546 -18.54106 22.02149 -1.922907 -1.883169 6.64013 -0.1246228 13.21353 -5.672795 1.83771 21.43595 4.794709 4.921714 -20.08838 5.906336 5.909082 -20.09439 10.68695 86.47992 35.58441 -18.31913 -0 0 15.86759 -13.50686 9.462057 3.528676 7.745546 -24.00448 -6.269074 -92.09907 15.60468 21.51523 0 0 -12.38522 18.75917 13.99697 -6.475254
-189.0899 101.2546 2175.855 -0.3297313 -7.1326 -18.52525 0.09236328 -9.980443 -2.744357 -0 28.26464 -0 -10.68984 -9.691877 -0.2528791 -6.521526 12.73947 -20.74442 -0 4.75533 -0 1.880505 -18.77114 22.04696 -2.00979 -1.961107 6.467407 0.04480468 13.01661 -5.776198 1.891077 21.47599 4.841951 4.752822 -20.48369 6.211268 5.99437 -19.98874 10.64734 86.44713 35.78666 -18.36545 -0 0 15.65443 -13.1028 9.439997 3.587802 7.669418 -23.66014 -5.951411 -92.06034 16.21165 21.24996 0 0 -12.61186 18.50535 14.08289 -6.190341
-189.7525 100.7092 2178.455 -0.2138574 -6.38889 -18.35238 0.4282696 -11.79402 -2.399682 -0 27.57782 -0 -10.38645 -9.68156 -0.2535637 -6.548834 12.82547 -20.52811 -0 4.770641 -0 2.559245 -18.99826 22.08094 -2.094039 -2.033898 6.29058 0.2198861 12.81967 -5.883811 1.932997 21.51273 4.897813 4.592011 -20.86822 6.501879 6.065998 -19.89295 10.62285 86.40811 35.95085 -18.3896 -0 0 15.46347 -12.73485 9.420914 3.66548 7.582201 -23.32178 -5.638189 -92.02187 16.76709 21.00238 0 0 -12.79496 18.2405 14.16243 -5.920622
-190.4248 100.1531 2181.051 -0.1167797 -5.64983 -18.1965 0.7846749 -13.61307 -2.074108 -0 26.86196 -0 -10.12265 -9.587535 -0.2270787 -6.569753 12.89404 -20.29253 -0 4.831134 -0 3.241666 -19.22463 22.12078 -2.174519 -2.100346 6.110943 0.3980333 12.62342 -5.994743 1.963167 21.54472 4.963962 4.442712 -21.23949 6.776712 6.125204 -19.8045 10.61259 86.36346 36.0806 -18.39437 -0 0 15.29291 -12.40626 9.406128 3.759903 7.489145 -22.99488 -5.329492 -91.98201 17.26532 20.76867 0 0 -12.93836 17.97216 14.23419 -5.672575
-191.1113 99.58823 2183.655 -0.03818063 -4.919022 -18.05739 1.159627 -15.43602 -1.771324 -0 26.11357 -0 -9.901158 -9.406504 -0.1733188 -6.584002 12.95022 -20.03731 -0 4.93914 -0 3.923468 -19.45259 22.16306 -2.250064 -2.159302 5.929924 0.5765496 12.42872 -6.108053 1.981432 21.5705 5.041809 4.308091 -21.59499 7.034406 6.173132 -19.72107 10.6156 86.31401 36.17938 -18.38248 -0 0 15.14097 -12.12009 9.397116 3.869291 7.395445 -22.68478 -5.025452 -91.93898 17.70142 20.54493 0 0 -13.04668 17.7073 14.297 -5.452031
-191.8168 99.01601 2186.283 0.02224499 -4.200481 -17.93435 1.55064 -17.26046 -1.49593 -0 25.3285 -0 -9.725102 -9.134123 -0.09196076 -6.591245 12.99917 -19.76147 -0 5.097928 -0 4.599206 -19.68465 22.20348 -2.319559 -2.209692 5.749083 0.7526372 12.23667 -6.222716 1.987817 21.58874 5.132403 4.190999 -21.9321 7.273654 6.21086 -19.64056 10.63083 86.2608 36.25055 -18.35661 -0 0 15.00589 -11.87913 9.395386 3.991813 7.306128 -22.39662 -4.726426 -91.89084 18.07137 20.32718 0 0 -13.12533 17.45222 14.34993 -5.264076
-192.5459 98.43733 2188.951 0.06483802 -3.498569 -17.82614 1.954606 -19.08316 -1.253385 -0 24.50171 -0 -9.597838 -8.765208 0.01744437 -6.591148 13.04636 -19.46335 -0 5.311887 -0 5.262345 -19.9234 22.23672 -2.382004 -2.250538 5.570107 0.9234237 12.04863 -6.337599 1.982563 21.5983 5.236311 4.093892 -22.24809 7.493176 6.239413 -19.56114 10.65711 86.20507 36.29741 -18.31937 -0 0 14.88585 -11.68575 9.402318 4.125546 7.22589 -22.13517 -4.433173 -91.83565 18.37221 20.11148 0 0 -13.18044 17.21249 14.39223 -5.112925
-193.3037 97.85273 2191.675 0.08998621 -2.818017 -17.73089 2.367693 -20.89986 -1.050042 -0 23.62733 -0 -9.522923 -8.29375 0.1554423 -6.583419 13.09772 -19.14058 -0 5.586901 -0 5.905226 -20.1714 22.25631 -2.436587 -2.28097 5.394781 1.086004 11.86624 -6.451417 1.966163 21.59836 5.353494 4.018738 -22.5401 7.691706 6.259746 -19.4813 10.69313 86.14827 36.32321 -18.2733 -0 0 14.77891 -11.54179 9.418999 4.268462 7.15888 -21.90467 -4.147046 -91.77146 18.60215 19.89411 0 0 -13.2187 16.99283 14.42325 -5.001817
-194.0953 97.2625 2194.472 0.09809444 -2.164062 -17.64594 2.785201 -22.70481 -0.8932896 -0 22.69877 -0 -9.504205 -7.712826 0.3226885 -6.567834 13.15985 -18.78996 -0 5.930959 -0 6.518846 -20.43096 22.25435 -2.482735 -2.300218 5.22496 1.237494 11.69146 -6.562692 1.939393 21.58855 5.483186 3.966909 -22.80518 7.867979 6.272716 -19.39989 10.73743 86.09207 36.33123 -18.22078 -0 0 14.68287 -11.44849 9.446069 4.418441 7.108465 -21.70859 -3.870185 -91.69638 18.76066 19.67166 0 0 -13.24715 16.79717 14.44242 -4.93297
-194.9263 96.66698 2197.364 0.08950743 -1.542726 -17.56769 3.201377 -24.4898 -0.7917647 -0 21.70928 -0 -9.546029 -7.014475 0.5199732 -6.544219 13.24021 -18.40743 -0 6.355089 -0 7.092325 -20.70374 22.22107 -2.520156 -2.307596 5.062519 1.375084 11.52661 -6.66971 1.90334 21.56911 5.623787 3.93909 -23.04028 8.020733 6.279038 -19.31617 10.78836 86.03838 36.32475 -18.16391 -0 0 14.59522 -11.40645 9.483585 4.573313 7.076972 -21.54945 -3.605705 -91.60866 18.84847 19.44121 0 0 -13.27286 16.62863 14.44905 -4.90762
-195.803 96.06699 2200.373 0.06437183 -0.9612585 -17.49138 3.609196 -26.24257 -0.7555889 -0 20.65307 -0 -9.653515 -6.189719 0.7482093 -6.512389 13.3474 -17.98798 -0 6.874751 -0 7.611908 -20.99012 22.14414 -2.548835 -2.302468 4.909297 1.496097 11.37438 -6.770484 1.859405 21.54096 5.772806 3.935204 -23.24231 8.148716 6.279229 -19.22987 10.84412 85.98938 36.30716 -18.10447 -0 0 14.513 -11.41564 9.530935 4.73093 7.065448 -21.4286 -3.357847 -91.50669 18.86749 19.20044 0 0 -13.30257 16.48972 14.44226 -4.92614
-196.7321 95.46449 2203.522 0.02241095 -0.4287046 -17.41084 4.000227 -27.94438 -0.7964165 -0 19.52725 -0 -9.832817 -5.228984 1.008295 -6.471968 13.49136 -17.52564 -0 7.511913 -0 8.059272 -21.28808 22.00754 -2.569012 -2.28419 4.767026 1.598055 11.23781 -6.862741 1.809285 21.50583 5.926865 3.95438 -23.40819 8.250715 6.273547 -19.14117 10.90274 85.94753 36.28191 -18.04377 -0 0 14.43266 -11.47554 9.586801 4.88926 7.073462 -21.3461 -3.132044 -91.389 18.82066 18.94776 0 0 -13.34227 16.38241 14.42084 -4.988203
